<svg width="1024" height="1024" viewBox="0 0 1024 1024" fill="none" xmlns="http://www.w3.org/2000/svg">
<path d="M428.772 327.544C449.962 326.428 449.706 369.806 448.02 383.204C445.368 381.71 443.112 380.36 440.884 378.252C430.546 367.46 418.794 353.194 415.66 338.382L415.912 337.79C418.386 331.85 422.832 329.532 428.772 327.544Z" fill="#00D7C0"/>
<path d="M212.32 647.178C213.55 646.942 218.39 645.936 217.204 648.342C216.63 649.504 183.783 685.592 181.729 687.488C177.28 691.598 173.254 693.298 167.545 690.51L166.99 690.126C135.522 668 196.126 649.256 212.32 647.178Z" fill="#00D7C0"/>
<path d="M903.356 457.5C916.818 457.182 934.75 459.372 939.252 474.424C935.02 496.246 918.82 478.612 906.042 476.51C885.74 475.946 890.63 481.834 879.402 486.018C867.07 490.614 865.656 466.426 903.356 457.5Z" fill="black"/>
<path d="M500.154 253.168C504.638 252.792 507.766 254.308 511.458 256.64C516.694 265.298 517.424 332.2 511.012 337.094L509.856 336.708C508.26 335.098 507.458 333.276 506.484 331.266C500.598 318.56 485.694 279.558 484.026 267.252C482.656 257.16 491.806 254.306 500.154 253.168Z" fill="#00D7C0"/>
<path d="M618.946 222.166C636.26 221.94 624.224 251.66 622.21 262.936L615.522 300.812C613.72 311.232 612.828 323.556 608.506 333.174C605.414 335.818 603.572 333.588 602.472 330.36C597.424 315.528 601.502 227.62 618.946 222.166Z" fill="black"/>
<path d="M751.892 294.614C757.868 294.296 763.816 295.74 768.658 299.388C781.134 308.788 761.562 326.282 755.292 333.732L730.86 362.776C728.532 365.556 723.852 373.652 719.57 372.512C714.608 366.294 736.55 299.318 751.892 294.614Z" fill="#00D7C0"/>
<path d="M233.844 422.988C246.09 423.054 304.77 465.158 311.194 475.522C315.492 482.456 303.58 479.128 300.88 478.288C288.824 475.036 276.866 470.782 265.006 466.852C250.358 462 224.206 457.64 219.32 440.632C221.414 432.884 225.81 425.642 233.844 422.988Z" fill="#00D7C0"/>
<path d="M877.918 302.166C888.818 300.364 895.672 312.824 873.086 322.87C821.134 345.976 787.768 371.144 751.892 415.27C750.646 416.692 746.388 423.508 745.33 418.314C744.214 412.82 759.598 391.978 763.572 386.616C782.84 360.62 844.282 307.152 877.918 302.166Z" fill="black"/>
<path d="M204.814 547.168C215.266 546.81 244.678 547.062 250.212 552.654L249.964 553.716C243.904 558.696 224.318 560.03 216.492 561.45C180.226 568.03 144.593 578.026 109.092 584.394C103.298 585.674 75.5162 591.368 71.6692 588.624C59.293 579.794 84.5516 573.724 87.5542 572.714C125.966 559.788 164.112 549.172 204.814 547.168Z" fill="black"/>
<path d="M281.438 256.64C290.978 258.21 300.39 271.162 306.992 277.74C347.286 317.896 392.992 368.37 424.028 416.758C425.078 418.394 435.75 434.448 428.772 432.88C417.04 424.634 402.256 408.228 392.074 397.516C356.094 359.668 320.668 319.992 289.56 277.954C286.452 273.754 273.016 260.752 281.438 256.64Z" fill="black"/>
<path d="M587.212 373.5C655.268 368.33 706.01 416.084 731.54 474.406C743.69 502.162 732.026 515.244 761.01 497.104C774.608 488.594 790.346 476.93 794.374 460.346C796.006 453.626 793.968 424.956 813.934 435.582C823.64 440.746 831.91 462.176 834.93 472.22C850.658 524.504 843.92 576.078 818.59 623.326C861.226 637.968 983.012 709.124 951.486 758.094C930.232 791.104 884.734 780.252 854.34 769.296C786.28 744.762 723.768 701.338 651.45 689.506C496.596 664.168 403.412 770.73 268.256 799.612C256.352 802.156 245.606 802.726 235.106 795.558C212.258 779.958 241.848 740.568 251.764 748.676C253.316 755.574 241.926 765.21 246.944 772.072C260.774 790.98 395.286 723.006 412.886 714.516C490.508 677.068 565.818 651.682 653.108 664.692C710.886 673.326 764.482 701.046 816.976 725.41C847.56 739.604 880.17 756.56 914.838 753.302C985.614 746.654 829.818 634.384 817.51 625.56C809.072 635.972 796.506 658.206 783.51 659.724C763.668 662.042 721.394 608.58 712.96 593.466C691.824 555.598 665.472 455.54 599.552 485.78C575.582 496.778 529.172 548.148 508.844 569.364C471.148 608.706 345.638 726.732 288.952 734.924C266.42 723.196 224.022 604.642 237.606 582.81C244.786 571.266 256.218 581.056 262.834 585.476C273.158 592.374 293.588 592.674 305.378 590.1C344.046 581.66 387.252 533.15 377.62 492.606C374.148 477.99 369.908 477.434 359.248 470.864L358.76 470.558C338.45 443.122 404.64 434.46 450.97 498.862C458.022 491.344 464.846 476.54 470.496 467.318C500.294 418.672 528.47 381.3 587.212 373.5ZM467.626 526.832C468.638 531.432 470.096 535.264 472.21 539.458C504.388 505.292 553.936 429.032 597.508 424.894C631.656 421.65 672.586 445.92 697.802 468.636C699.868 470.498 701.596 472.684 703.78 474.424C682.952 422.674 619.434 381.164 563.84 403.49C527.656 418.022 501.658 460.664 483.564 493.466C477.852 503.824 469.844 515.044 467.626 526.832ZM403.1 498.862C402.112 570.916 331.128 631.682 260.342 611.472C263.446 625.956 266.694 640.828 272.296 654.596C330.05 660.118 390.99 618.918 404.23 562.032C407.372 548.532 410.594 510.892 403.1 498.862ZM810.786 483.016C792.124 505.426 777.472 518.22 747.09 526.832C747.738 529.89 748.604 532.824 749.544 535.804C771.7 543.958 801.612 539.73 809.908 514.236C811.572 509.12 812.416 503.754 814.744 498.862C813.838 493.46 812.482 488.222 810.786 483.016Z" fill="black"/>
<path d="M400.584 483.016C433.644 502.86 444.11 543.746 467.626 575.102C424.498 619.104 355.324 681.206 297.02 705.736C286.654 690.3 278.722 672.016 272.296 654.596C330.05 660.118 390.99 618.918 404.23 562.032C407.372 548.532 410.594 510.892 403.1 498.862C402.646 493.44 402.074 488.26 400.584 483.016Z" fill="#00D7C0"/>
<path d="M472.21 539.458C504.388 505.292 553.936 429.032 597.508 424.894C631.656 421.65 672.586 445.92 697.802 468.636C699.868 470.498 701.596 472.684 703.78 474.424C711.854 485.206 722.004 524.998 724.542 539.536C725.906 547.346 727.628 585.052 745.884 570.952C754.78 564.082 749.266 545.35 749.544 535.804C771.7 543.958 801.612 539.73 809.908 514.236C811.572 509.12 812.416 503.754 814.744 498.862C824.308 545.754 811.82 596.33 780.754 632.788C734.404 594.772 735.748 584.618 712.4 532.954C692.52 488.966 661.958 451.446 608.892 456.858C546.816 463.19 516.622 509.808 482.534 553.406C478.882 548.948 475.174 544.412 472.21 539.458Z" fill="#00D7C0"/>
</svg>
