<?xml version="1.0" encoding="utf-8" ?>
<svg xmlns="http://www.w3.org/2000/svg" xmlns:xlink="http://www.w3.org/1999/xlink" width="1024" height="1024">
	<path fill="#010101" transform="scale(2 2)" d="M378.879 361.743C384.365 374.869 354.703 401.926 350.16 386.27C356.372 391.682 359.893 389.736 366.415 384.461C373.874 378.428 377.831 371.223 378.879 361.743Z"/>
	<path fill="#FC625D" transform="scale(2 2)" d="M382.002 145.25C383.977 145.037 387.236 145.196 387.105 147.993C386.974 150.789 373.304 154.472 367.924 159.419L364.715 162.6C367.709 154.399 373.204 147.334 382.002 145.25Z"/>
	<path fill="#010101" transform="scale(2 2)" d="M214.319 192.74C213.74 189.594 212.397 186.635 211.893 183.485C210.8 176.658 214.849 153.323 222.162 152.195C221.429 155.603 219.56 158.118 218.011 161.162C213.145 170.725 212.517 181.192 215.309 191.381C217.891 200.803 197.822 189.726 200.088 169.531C202.926 173.951 199.486 186.703 214.319 192.74Z"/>
	<path fill="#010101" transform="scale(2 2)" d="M66.8982 359.412C67.1676 360.063 67.3563 360.704 67.5128 361.393C70.8841 376.251 84.1837 388.827 99.6717 389.493C101.583 389.575 103.664 389.336 105.541 389.625C85.6779 395.732 64.8603 380.387 66.8982 359.412Z"/>
	<path fill="#010101" transform="scale(2 2)" d="M356.334 177.405C366.067 166.05 388.039 152.052 401.827 163.934C406.187 167.692 408.693 176.288 404.199 180.904C396.46 188.853 380.109 175.196 363.321 183.88C365.356 179.519 379.79 179.019 383.58 179.418C390.203 180.116 410.217 185.441 403.127 169.502C396.633 154.904 372.447 163.954 363.641 171.075C361.693 172.65 358.683 176.911 356.334 177.405Z"/>
	<path fill="#010101" transform="scale(2 2)" d="M365.471 346.645L365.535 347.011C342.624 369.747 327.02 351.564 321.436 356.904C319.243 359.001 320.727 362.414 322.655 364.105C337.975 377.536 364.522 369.455 368.953 349.577C375.138 368.367 326.571 383.831 318.57 360.409C321.582 349.882 327.767 354.868 335.665 356.835C349.732 360.34 355.998 349.31 365.471 346.645Z"/>
	<path fill="#FC625D" transform="scale(2 2)" d="M350.16 386.27C350.761 381.994 357.553 378.346 360.515 375.699C364.053 372.539 373.871 359.814 378.879 361.743C377.831 371.223 373.874 378.428 366.415 384.461C359.893 389.736 356.372 391.682 350.16 386.27Z"/>
	<path fill="#010101" transform="scale(2 2)" d="M239.537 162.6C243.922 157.26 249.229 152.506 252.323 146.224C256.699 137.34 254.772 119.646 267.161 118.344C284.553 116.515 300.303 139.757 287.073 155.422C273.852 171.078 252.783 174.21 236.368 184.943C243.412 174.113 281.128 167.449 288.281 148.133C292.086 137.858 284.39 126.284 274.702 122.847C259.171 117.337 260.164 130.448 256.758 140.924C255.104 146.01 244.535 161.072 239.537 162.6Z"/>
	<path fill="#FC625D" transform="scale(2 2)" d="M200.088 169.531C202.246 145.365 225.166 138.471 222.162 152.195C214.849 153.323 210.8 176.658 211.893 183.485C212.397 186.635 213.74 189.594 214.319 192.74C199.486 186.703 202.926 173.951 200.088 169.531Z"/>
	<path fill="#FC625D" transform="scale(2 2)" d="M365.471 346.645C367.553 346.354 368.34 347.843 368.953 349.577C364.522 369.455 337.975 377.536 322.655 364.105C320.727 362.414 319.243 359.001 321.436 356.904C327.02 351.564 342.624 369.747 365.535 347.011L365.471 346.645Z"/>
	<path fill="#FC625D" transform="scale(2 2)" d="M356.334 177.405C358.683 176.911 361.693 172.65 363.641 171.075C372.447 163.954 396.633 154.904 403.127 169.502C410.217 185.441 390.203 180.116 383.58 179.418C379.79 179.019 365.356 179.519 363.321 183.88C362.1 185.006 360.408 185.908 359.078 186.95C358.041 187.763 352.303 193.3 351.248 192.396C347.095 188.832 353.988 180.099 356.334 177.405Z"/>
	<path fill="#FC625D" transform="scale(2 2)" d="M66.8982 359.412C67.5783 355.108 69.8776 350.822 71.3601 346.714C74.7469 337.328 74.3455 329.684 80.5524 340.839C92.894 359.643 97.1119 363.069 115.531 373.421C131.171 380.272 113.917 388.93 105.541 389.625C103.664 389.336 101.583 389.575 99.6717 389.493C84.1837 388.827 70.8841 376.251 67.5128 361.393C67.3563 360.704 67.1676 360.063 66.8982 359.412Z"/>
	<path fill="#010101" transform="scale(2 2)" d="M80.5524 340.839C92.894 359.643 97.1119 363.069 115.531 373.421C114.475 373.49 113.155 373.072 112.121 372.84C97.7632 369.621 83.0176 355.426 80.5524 340.839Z"/>
	<path fill="#FC625D" transform="scale(2 2)" d="M239.537 162.6C244.535 161.072 255.104 146.01 256.758 140.924C260.164 130.448 259.171 117.337 274.702 122.847C284.39 126.284 292.086 137.858 288.281 148.133C281.128 167.449 243.412 174.113 236.368 184.943C234.858 186.798 227.22 192.84 225.464 188.731C222.789 182.47 234.76 164.402 239.537 162.6Z"/>
	<path fill="#010101" transform="scale(2 2)" d="M60.4737 190.25C82.247 188.386 116.183 201.796 121.307 225.14C124.462 215.858 129.059 194.867 144.165 202.678C155.852 208.721 151.932 225.681 150.796 236.006C149.266 249.905 147.558 272.349 151.85 285.63C156.95 301.408 163.753 258.34 164.348 254.97L167.77 236.397C169.56 226.264 170.955 205.453 180.106 199.684C203.179 185.137 216.238 232.012 223.864 244.419C228.856 236.432 234.938 228.965 240.681 221.507C240.053 201.679 251.845 198.795 267.824 197.099L284.346 195.4C295.554 194.278 308.384 192.462 319.544 192.516C334.53 192.588 342.31 208.117 338.652 221.507C361.767 206.615 379.873 215.141 387.563 240.218C387.749 235.659 388.951 231.002 389.766 226.516C391.607 216.378 392.081 204.222 403.331 199.803C411.376 196.643 420.698 200.182 425.897 206.77C435.834 219.361 441.137 244.553 447.223 260.66C448.867 250.371 453.52 231.927 456.635 222.085C462.33 204.091 483.789 205.952 486.558 220.69C488.171 229.269 478.408 283.257 476.645 293.759L472.899 316.118C471.573 324.183 471.04 332.287 466.356 339.235C460.512 347.03 450.595 349.654 441.573 345.811C428.901 340.414 420.016 310.115 414.409 295.912C408.718 310.028 411.402 334.612 399.642 346.075C393.044 352.506 382.563 351.886 376.27 345.348C370.591 339.449 371.45 331.36 371.627 323.839C358.395 351.811 319.028 349.481 307.737 320.412C306.063 323.946 306.096 328.105 305.096 331.862C299.828 351.664 280.857 358.574 270.09 339.235C264.369 349.225 249.511 350.893 241.338 342.847C230.883 332.553 237.825 310.242 237.642 295.912C230.954 305.066 222.137 313.744 211.742 304.215C210.427 313.707 208.911 329.309 197.784 332.612C190.182 334.868 183.136 330.228 181.116 322.858C168.884 333.361 164.235 337.44 146.011 335.914C152.467 342.745 151.044 352.862 143.767 358.388C135.739 364.486 126.075 361.185 117.882 357.491C94.0385 346.743 80.8196 326.631 65.7545 306.823C66.1778 317.275 66.5647 338.861 60.8983 347.412C55.8739 354.995 46.6021 356.927 39.2074 351.498C24.4205 340.644 25.7659 293.731 25.2488 277.04C24.8525 264.247 24.7465 251.663 25.1852 238.845C26.2208 208.583 27.8127 195.236 60.4737 190.25ZM166.671 271.474C164.189 278.934 161.51 291.361 152.25 292.7C151.665 291.995 151.044 291.386 150.363 290.774C139.165 289.157 143.637 245.486 144.33 237.939C145.659 223.466 149.426 217.66 140.527 205.361C126.144 202.593 124.844 237.277 123.828 245.751C121.301 266.828 117.099 302.357 130.494 320.476C132.762 323.545 135.62 326.024 138.02 328.961C154.592 338.633 171.411 330.641 181.828 316.096C183.334 320.41 185.214 327.425 190.17 328.961C205.386 327.303 203.218 303.791 206.679 292.7C206.696 291.366 207.151 288.478 209.05 289.265C212.718 293.431 210.859 302.364 220.003 305.295C222.006 303.711 224.347 302.668 226.267 300.924C229.181 298.278 236.491 288.579 240.681 289.081L241.543 289.079C246.504 295.634 226.63 342.395 252.527 344.658L252.314 344.483L252.423 344.312C268.476 341.453 264.046 328.4 268.751 321.858C270.511 318.637 274.309 242.498 273.941 236.314C261.235 238.524 249.437 239.847 242.389 226.537L241.981 225.676C237.043 228.178 230.338 243.834 223.864 248.089C223.287 247.798 222.696 247.531 222.162 247.165C212.786 235.088 206.257 201.519 190.17 201.236C175.148 201.392 175.05 219.678 173.373 230.823L169.56 256.482C168.848 261.363 168.384 266.835 166.671 271.474ZM42.431 349.577C66.1182 361.314 62.8275 318.3 62.8444 306.693C62.8485 303.835 63.2234 300.606 62.8312 297.798C65.4781 300.012 69.7603 307.34 72.2148 310.637C84.2071 326.742 97.8073 343.74 115.965 353.208C119.29 354.943 123.776 357.896 127.691 357.248C136.286 358.743 143.205 354.794 143.926 345.433C144.42 339.024 135.209 334.854 131.068 331.556C117.609 320.834 106.26 307.74 97.77 292.758C95.1445 288.125 93.1747 283.023 89.7798 278.882C98.4169 272.1 104.006 269.794 110.713 259.942C128.517 233.789 109.839 206.123 82.5499 196.652C79.4206 195.566 74.4163 195.619 71.8585 193.557C57.3116 193.374 38.8328 195.232 33.2361 211.082C27.4243 227.54 30.048 261.56 30.4067 281.218C30.6546 294.797 29.5893 343.637 42.431 349.577ZM382.527 345.53C400.967 347.468 402.41 324.508 404.667 311.244C405.893 304.036 408.278 288.771 410.648 282.015L410.976 281.948L411.328 282.771C419.395 286.473 429.171 334.414 442.25 342.217C467.372 344.147 465.706 323.42 468.89 304.538C472.265 284.518 475.42 264.548 478.351 244.455C479.3 237.948 481.559 228.171 481.47 221.875C481.42 218.288 478.747 216.889 478.031 213.827C464.496 207.33 460.301 223.157 457.988 232.863C455.327 244.032 452.814 261.222 448.801 271.474C448.255 270.519 447.825 269.466 447.223 268.555C443.86 262.95 442.231 255.812 440.216 249.602C436.133 237.019 427.703 206.289 414.409 202.408C395.468 200.071 395.586 217.77 393.36 231.437C390.73 247.584 388.68 264.264 385.876 280.235C384.087 290.424 381.446 300.527 379.155 310.615C376.773 321.106 371.482 338.006 382.527 345.53ZM308.26 313.609C313.921 325.484 316.49 329.801 327.683 337.29C328.143 337.303 328.551 337.405 328.997 337.508C358.711 344.352 371.375 315.733 376.726 291.609C381.66 269.367 391.496 224.986 360.229 218.127L360.273 217.915C336.504 217.557 315.521 250.051 311.451 269.948C309.928 277.39 310.483 285.626 310.084 293.202C309.724 300.03 308.73 306.788 308.26 313.609ZM71.8585 193.557C74.4163 195.619 79.4206 195.566 82.5499 196.652C109.839 206.123 128.517 233.789 110.713 259.942C104.006 269.794 98.4169 272.1 89.7798 278.882C93.1747 283.023 95.1445 288.125 97.77 292.758C106.26 307.74 117.609 320.834 131.068 331.556C135.209 334.854 144.42 339.024 143.926 345.433C143.205 354.794 136.286 358.743 127.691 357.248C139.745 363.119 152.265 349.101 144.89 339.381C142.155 335.777 138.106 333.389 134.604 330.614C115.601 315.552 105.398 299.693 93.1451 278.882C116.717 267.351 129.43 241.619 114.391 217.73C104.157 201.475 88.8426 197.35 71.8585 193.557ZM278.204 344.658C284.586 348.57 293.332 346.819 297.746 340.758C307.059 327.972 308.075 265.575 308.274 246.888C308.334 241.324 309.099 235.855 308.26 230.319C307.652 228.802 306.981 227.678 305.795 226.537L304.892 226.171L304.587 226.365C305.091 232.307 304.798 238.265 304.796 244.22C304.788 267.382 303.809 308.423 298.098 330.551C295.019 342.482 289.5 345.764 278.204 344.658ZM360.273 217.915L360.229 218.127C391.496 224.986 381.66 269.367 376.726 291.609C371.375 315.733 358.711 344.352 328.997 337.508C328.551 337.405 328.143 337.303 327.683 337.29C337.64 343.422 352.403 340.423 360.799 333.088C374.339 321.257 379.439 293.204 382.315 276.621C385.923 255.821 390.626 219.805 360.273 217.915ZM116.216 264.172C110.206 271.185 105.717 275.408 97.7506 280.191C102.094 288.211 106.712 295.792 112.13 303.135C114.839 306.66 118.016 309.915 120.469 313.609C118.296 301.638 116.449 295.874 116.076 282.903C115.988 279.815 116.735 265.716 116.216 264.172ZM442.25 342.217C445.9 344.461 451.351 344.898 455.371 343.578C465.948 340.105 467.612 329.454 469.23 320.011L476.471 277.345C478.978 261.728 482.377 242.893 483.607 227.405C484.042 221.922 483.57 216.596 478.031 213.827C478.747 216.889 481.42 218.288 481.47 221.875C481.559 228.171 479.3 237.948 478.351 244.455C475.42 264.548 472.265 284.518 468.89 304.538C465.706 323.42 467.372 344.147 442.25 342.217ZM140.527 205.361C149.426 217.66 145.659 223.466 144.33 237.939C143.637 245.486 139.165 289.157 150.363 290.774C143.78 276.789 145.891 252.395 147.573 237.244C148.635 227.681 153.653 208.651 140.527 205.361ZM382.527 345.53C385.459 347.246 388.014 347.847 391.393 346.955C405.609 343.204 406.547 316.902 408.851 305.11C410.336 297.513 413.367 290.526 411.328 282.771L410.976 281.948L410.648 282.015C408.278 288.771 405.893 304.036 404.667 311.244C402.41 324.508 400.967 347.468 382.527 345.53ZM308.26 197.449C316.176 198.275 323 196.039 329.153 203.361C333.955 209.076 334.118 218.12 328.068 223.099C321.959 228.127 314.283 225.842 307.175 226.537C319.922 233.276 337.787 229.511 335.785 211.635C333.914 194.936 321.449 195.415 308.26 197.449ZM311.748 232.175C312.542 238.27 311.996 253.13 311.42 259.609C313.062 255.727 314.659 251.831 316.605 248.089C319.404 242.719 323.16 236.326 327.683 232.175C322.261 233.637 317.194 233.554 311.748 232.175ZM206.679 292.7C203.218 303.791 205.386 327.303 190.17 328.961C204.788 334.908 209.688 307.899 208.674 299.359C208.421 297.227 207.282 294.79 206.679 292.7ZM252.527 344.658C268.472 345.539 268.845 334.214 268.751 321.858C264.046 328.4 268.476 341.453 252.423 344.312L252.314 344.483L252.527 344.658Z"/>
	<path fill="white" transform="scale(2 2)" d="M220.003 305.295C222.006 303.711 224.347 302.668 226.267 300.924C229.181 298.278 236.491 288.579 240.681 289.081C233.217 294.078 228.172 305.232 220.003 305.295Z"/>
	<path fill="#010DFB" transform="scale(2 2)" d="M252.527 232.175C247.902 229.769 244.139 223.69 244.555 218.513C246.043 199.974 265.829 201.171 279.435 199.688C286.947 198.87 300.952 196.765 308.26 197.449C316.176 198.275 323 196.039 329.153 203.361C333.955 209.076 334.118 218.12 328.068 223.099C321.959 228.127 314.283 225.842 307.175 226.537C306.73 226.454 306.247 226.518 305.795 226.537L304.892 226.171L304.587 226.365C305.091 232.307 304.798 238.265 304.796 244.22C304.788 267.382 303.809 308.423 298.098 330.551C295.019 342.482 289.5 345.764 278.204 344.658C270.798 340.599 272.972 328.291 273.748 321.624C276.383 298.996 277.504 276.363 279.173 253.664C279.45 249.882 280.658 235.162 279.961 232.175C271.189 232.558 260.401 236.747 252.527 232.175Z"/>
	<path fill="white" transform="scale(2 2)" d="M252.527 232.175C260.618 232.437 273.45 228.817 278.937 229.407C279.543 230.165 279.712 231.252 279.961 232.175C271.189 232.558 260.401 236.747 252.527 232.175Z"/>
	<path fill="#010DFB" transform="scale(2 2)" d="M308.26 313.609C308.73 306.788 309.724 300.03 310.084 293.202C310.483 285.626 309.928 277.39 311.451 269.948C315.521 250.051 336.504 217.557 360.273 217.915L360.229 218.127C391.496 224.986 381.66 269.367 376.726 291.609C371.375 315.733 358.711 344.352 328.997 337.508C328.551 337.405 328.143 337.303 327.683 337.29C316.49 329.801 313.921 325.484 308.26 313.609ZM351.848 250.861C337.882 255.858 330.987 292.809 333.897 305.295C337.359 311.159 343.241 309.487 346.818 304.829C353.731 295.826 364.618 248.802 351.848 250.861ZM333.897 305.295C330.987 292.809 337.882 255.858 351.848 250.861C337.922 247.677 323.535 294.623 333.897 305.295Z"/>
	<path fill="#010101" transform="scale(2 2)" d="M351.848 250.861C364.618 248.802 353.731 295.826 346.818 304.829C343.241 309.487 337.359 311.159 333.897 305.295C330.987 292.809 337.882 255.858 351.848 250.861ZM351.848 253.428C344.196 259.873 329.952 297.323 338.652 305.295C349.039 304.11 358.019 259.692 351.848 253.428Z"/>
	<path fill="#010DFB" transform="scale(2 2)" d="M382.527 345.53C371.482 338.006 376.773 321.106 379.155 310.615C381.446 300.527 384.087 290.424 385.876 280.235C388.68 264.264 390.73 247.584 393.36 231.437C395.586 217.77 395.468 200.071 414.409 202.408C427.703 206.289 436.133 237.019 440.216 249.602C442.231 255.812 443.86 262.95 447.223 268.555C447.825 269.466 448.255 270.519 448.801 271.474C452.814 261.222 455.327 244.032 457.988 232.863C460.301 223.157 464.496 207.33 478.031 213.827C478.747 216.889 481.42 218.288 481.47 221.875C481.559 228.171 479.3 237.948 478.351 244.455C475.42 264.548 472.265 284.518 468.89 304.538C465.706 323.42 467.372 344.147 442.25 342.217C429.171 334.414 419.395 286.473 411.328 282.771L410.976 281.948L410.648 282.015C408.278 288.771 405.893 304.036 404.667 311.244C402.41 324.508 400.967 347.468 382.527 345.53ZM414.409 202.408C422.412 207.904 425.326 216.052 428.779 224.838C434.845 240.27 439.007 256.624 444.946 271.474L447.223 268.555C443.86 262.95 442.231 255.812 440.216 249.602C436.133 237.019 427.703 206.289 414.409 202.408Z"/>
	<path fill="#010DFB" transform="scale(2 2)" d="M42.431 349.577C29.5893 343.637 30.6546 294.797 30.4067 281.218C30.048 261.56 27.4243 227.54 33.2361 211.082C38.8328 195.232 57.3116 193.374 71.8585 193.557C74.4163 195.619 79.4206 195.566 82.5499 196.652C109.839 206.123 128.517 233.789 110.713 259.942C104.006 269.794 98.4169 272.1 89.7798 278.882C93.1747 283.023 95.1445 288.125 97.77 292.758C106.26 307.74 117.609 320.834 131.068 331.556C135.209 334.854 144.42 339.024 143.926 345.433C143.205 354.794 136.286 358.743 127.691 357.248C123.776 357.896 119.29 354.943 115.965 353.208C97.8073 343.74 84.2071 326.742 72.2148 310.637C69.7603 307.34 65.4781 300.012 62.8312 297.798C63.2234 300.606 62.8485 303.835 62.8444 306.693C62.8275 318.3 66.1182 361.314 42.431 349.577ZM68.7795 229.745C63.0458 233.299 63.3049 247.69 63.5026 253.428C62.5441 260.435 77.8881 250.129 79.3928 248.758C88.5871 240.378 80.8979 229.486 68.7795 229.745ZM60.4737 294.624L60.4826 313.313C60.4801 327.88 63.2783 350.529 43.0836 349.611L42.431 349.577C66.1182 361.314 62.8275 318.3 62.8444 306.693C62.8485 303.835 63.2234 300.606 62.8312 297.798C61.8934 296.878 61.2062 295.71 60.4737 294.624Z"/>
	<path fill="#010101" transform="scale(2 2)" d="M68.7795 229.745C80.8979 229.486 88.5871 240.378 79.3928 248.758C77.8881 250.129 62.5441 260.435 63.5026 253.428C63.3049 247.69 63.0458 233.299 68.7795 229.745ZM71.8585 232.175C70.396 237.431 70.1517 245.412 70.283 250.861C72.1639 250.02 73.9798 249.042 75.8052 248.089C82.8021 241.03 81.5649 235.765 71.8585 232.175ZM63.5026 253.428L66.8982 251.999C67.6326 244.826 68.1812 236.991 68.7795 229.745C63.0458 233.299 63.3049 247.69 63.5026 253.428Z"/>
	<path fill="#14BBAB" transform="scale(2 2)" d="M166.671 271.474C168.384 266.835 168.848 261.363 169.56 256.482L173.373 230.823C175.05 219.678 175.148 201.392 190.17 201.236C206.257 201.519 212.786 235.088 222.162 247.165C222.696 247.531 223.287 247.798 223.864 248.089C230.338 243.834 237.043 228.178 241.981 225.676L242.389 226.537C249.437 239.847 261.235 238.524 273.941 236.314C274.309 242.498 270.511 318.637 268.751 321.858C264.046 328.4 268.476 341.453 252.423 344.312L252.314 344.483L252.527 344.658C226.63 342.395 246.504 295.634 241.543 289.079L240.681 289.081C236.491 288.579 229.181 298.278 226.267 300.924C224.347 302.668 222.006 303.711 220.003 305.295C210.859 302.364 212.718 293.431 209.05 289.265C207.151 288.478 206.696 291.366 206.679 292.7C203.218 303.791 205.386 327.303 190.17 328.961C185.214 327.425 183.334 320.41 181.828 316.096C171.411 330.641 154.592 338.633 138.02 328.961C135.62 326.024 132.762 323.545 130.494 320.476C117.099 302.357 121.301 266.828 123.828 245.751C124.844 237.277 126.144 202.593 140.527 205.361C149.426 217.66 145.659 223.466 144.33 237.939C143.637 245.486 139.165 289.157 150.363 290.774C151.044 291.386 151.665 291.995 152.25 292.7C161.51 291.361 164.189 278.934 166.671 271.474ZM138.02 328.961C154.592 338.633 171.411 330.641 181.828 316.096C181.512 313.809 181.221 311.554 181.116 309.244C174.589 320.283 161.506 331.71 147.708 330.204C144.821 329.889 140.863 328.287 138.02 328.961ZM190.17 201.236C203.581 211.119 206.827 223.884 213.732 238.807C215.102 241.767 216.483 245.69 218.717 248.089C219.89 247.644 220.925 247.371 222.162 247.165C212.786 235.088 206.257 201.519 190.17 201.236Z"/>
</svg>
