<svg width="1024" height="1024" viewBox="0 0 1024 1024" fill="none" xmlns="http://www.w3.org/2000/svg">
<path d="M242.942 298.826C251.756 299.492 254.404 309.254 251.268 316.222C245.292 315.004 239.08 304.452 242.942 298.826Z" fill="#FF00D3"/>
<path d="M534.168 345.16C541.52 348.102 553.356 357.912 547.218 366.522C537.246 370.15 531.578 352.474 534.168 345.16Z" fill="#FF00D3"/>
<path d="M262.462 345.16C267.876 345.678 283.248 358.668 274.004 366.522C265.616 369.306 255.19 350.98 262.462 345.16Z" fill="#FF00D3"/>
<path d="M702.624 340.682C709.566 343.276 720.232 358.39 711.842 364.398C700.922 365.34 695.936 348.032 702.624 340.682Z" fill="#FF00D3"/>
<path d="M557.506 333.806C565.592 335.998 578.294 352.026 570.804 358.754C560.668 362.028 552.696 341.012 557.506 333.806Z" fill="#FF00D3"/>
<path d="M285.434 329.188C291.232 331.414 310.616 347.764 300.586 353.526C293.042 359.52 278.904 337.498 285.434 329.188Z" fill="#FF00D3"/>
<path d="M587.07 323.218C593.372 324.584 609.388 342.312 600.282 347.792C589.776 351.516 578.9 329.572 587.07 323.218Z" fill="#FF00D3"/>
<path d="M217.204 309.744C225.74 311.434 241.526 330.81 233.866 337.036C224.092 338.698 211.804 318.692 217.204 309.744Z" fill="#FF00D3"/>
<path d="M425.724 340.682C434.286 340.86 446.448 362.54 441.6 368.206C424.724 373.24 423.588 344.122 425.724 340.682Z" fill="#FF00D3"/>
<path d="M312.552 323.218C318.938 323.448 337.804 342.644 329.232 349.29C318.962 351.622 305.19 330.262 312.552 323.218Z" fill="#FF00D3"/>
<path d="M613.41 317.936C622.216 317.58 636.378 338.652 629.906 345.16C617.386 348.51 608.694 327.27 613.41 317.936Z" fill="#FF00D3"/>
<path d="M645.098 319.786C650.614 323.03 667.966 341.194 658.312 349.29C646.708 348.766 634.7 328.618 645.098 319.786Z" fill="#FF00D3"/>
<path d="M395.716 326.408C403.172 327.71 418.474 348.448 411.464 356.8C400.576 359.234 389.118 335.508 395.716 326.408Z" fill="#FF00D3"/>
<path d="M673.476 326.408C681.844 328.552 695 350.156 685.86 356.8C674.438 357.74 664.762 333.124 673.476 326.408Z" fill="#FF00D3"/>
<path d="M368.324 319.786C375.232 320.812 384.982 337.054 387.83 343.008C386.312 345.356 384.864 347.314 382.86 349.29C374.412 352.102 357.29 324.538 368.324 319.786Z" fill="#FF00D3"/>
<path d="M338.168 317.936C346.784 319.716 364.988 338.534 357.19 347.792C345.296 351.146 332.526 326.592 338.168 317.936Z" fill="#FF00D3"/>
<path d="M195.326 326.408C201.394 328.098 226.882 353.556 217.204 360.472C207.306 358.736 195.06 342.442 191.307 333.806C192.119 330.612 192.374 328.33 195.326 326.408Z" fill="#FF00D3"/>
<path d="M131.58 492.024C134.418 491.668 175.153 507.594 167.679 515.796C159.56 516.866 119.763 505.754 131.58 492.024Z" fill="#FF00D3"/>
<path d="M176.976 347.792C181.003 349.432 216.688 374.41 203.45 381.782C191.97 384.054 176.128 362.426 172.708 353.526C173.912 351.102 175.105 349.69 176.976 347.792Z" fill="#FF00D3"/>
<path d="M159.46 370.718C165.326 371.57 201.342 397.954 191.307 406.554C184.947 406.4 146.955 383.312 159.46 370.718Z" fill="#FF00D3"/>
<path d="M147.936 398.05C150.629 398.418 198.093 423.374 180.52 430.96C173.858 429.512 129.048 406.68 147.936 398.05Z" fill="#FF00D3"/>
<path d="M125.777 458.512C130.751 458.262 183.145 474.42 167.679 484.82C164.156 485.574 112.385 471.622 125.777 458.512Z" fill="#FF00D3"/>
<path d="M134.592 427C144.305 427.436 166.903 442.746 174.559 448.574C178.804 451.804 177.789 455.016 174.631 458.512C163.41 458.444 146.458 445.876 137.23 439.938C131.051 435.964 129.622 432.918 134.592 427Z" fill="#FF00D3"/>
<path d="M610.794 662.892L611.054 663.152C611.454 666.658 603.544 681.644 601.48 685.028C573.21 731.368 510.028 736.542 466.372 709.436C463.016 706.91 459.834 704.292 456.708 701.486C508.294 725.38 575.262 706.236 610.794 662.892Z" fill="black"/>
<path d="M322.752 519.182C350.046 517.068 365.154 529.324 375.542 554.324C360.968 540.906 345.352 531.468 324.514 533.726C303.602 535.992 272.672 550.794 275.738 575.904C282.542 591.15 290.188 602.262 300.586 614.868C285.178 603.756 264.152 586.978 262.324 567.13C259.678 538.414 299.792 521.242 322.752 519.182Z" fill="black"/>
<path d="M689.496 505.194C716.22 502.098 763.478 522.218 763.984 554.2C764.31 574.74 742.164 594.112 728.292 608.424C736.33 595.974 753.296 573.846 751.218 558.454C743.25 531.906 706.43 515.788 680.846 521.814C660.592 526.586 651.016 539.878 640.676 556.61C646.376 528.014 657.634 508.402 689.496 505.194Z" fill="black"/>
<path d="M351.422 353.526C383.504 354.52 408.76 359.772 435.884 377.642C438.982 379.682 446.374 384.39 447.126 388.162C444.898 391.602 428.102 382.198 424.634 380.784C383.758 364.116 341.38 369.476 300.586 384.438C273.938 395.542 250.966 410.472 229.452 429.644C259.922 371.64 294.18 363.73 351.422 353.526Z" fill="black"/>
<path d="M605.784 406.554C646.188 403.802 684.358 430.312 705.032 463.584C720.566 488.586 678.468 454.042 673.926 450.79C662.168 442.368 648.192 432.538 633.944 429.644C589.148 411.3 537.452 465.662 526.486 463.584C523.1 460.752 525.236 457.7 527.522 454.706C547.138 429.016 573.332 410.8 605.784 406.554Z" fill="black"/>
<path d="M624.158 353.526C649.574 352.382 723.114 367.074 733.154 394.256C734.354 397.506 731.89 400.39 728.416 399.822C724.044 399.108 703.372 386.844 696.808 383.944C667.694 371.084 638.754 368.306 607.504 373.128C583.8 376.482 561.686 385.474 541.546 398.228C537.528 400.772 516.128 416.73 513.886 416.804C509.424 414.252 516.252 406.248 518.276 403.778C545.71 370.3 582.618 357.564 624.158 353.526Z" fill="black"/>
<path d="M362.36 406.554C396.52 402.15 429.092 421.884 451.496 446.092C458.222 453.36 472.882 472.494 450.386 459.56C421.244 442.802 399.834 425.092 364.876 427C337.936 427.474 300.562 458.846 278.1 472.218C268.762 477.776 275.988 465.224 277.946 462.614C299.222 434.246 326.748 411.808 362.36 406.554Z" fill="black"/>
<path d="M697.734 550.606C712.67 550.37 725.204 565.602 716.442 579.102C690.274 619.426 625.432 656.852 579.866 666.532C491.216 685.368 415.674 653.56 342.414 605.938C335.06 600.836 296.46 579.25 322.752 572.778C330.704 575.294 338.036 581.186 345.398 585.138C450.412 641.51 575.866 656.822 671.192 570.622C679.594 563.024 686.126 553.004 697.734 550.606Z" fill="black"/>
<path d="M103.342 447.438C106.791 453.586 106.804 460.314 108.265 467.022C113.297 490.134 127.972 515.2 152.172 521.744C187.837 531.388 182.723 507.994 184.183 487.456C186.335 457.184 195.656 427.984 207.74 400.312C306.5 174.166 623.736 124.471 776.924 329.202C789.3 345.742 797.722 361.982 808.122 379.49C812.04 381.942 814.306 387.762 817.048 391.488C836.64 419.868 864.48 491.252 863.972 521.446C893.852 519.068 911.656 491.568 916.21 464.108C918.066 452.906 921.24 434.682 937.458 447.438C942.588 457.47 937.026 472.53 933.788 482.558C923.976 512.946 898.2 543.15 863.972 543.262C863.992 554.116 864.368 565.154 863.318 575.964C850.438 708.584 717.574 798.978 594.534 816.59L571.946 819.68C569.234 820.046 566.682 820.87 563.914 820.728C553.204 819.336 539.984 821.574 529.042 822.034C422.238 826.518 321.644 788.878 251.522 705.836C217.384 665.41 178.899 596.21 183.57 540.846C184.352 544.436 184.39 548.174 185.172 551.816C198.328 613.12 254.282 698.308 305.414 731.144C315.514 733.814 342.952 749.77 356.546 755.04C533.682 823.706 750.688 719.364 807.274 537.754C810.488 527.438 813.162 516.826 817.048 506.746C819.298 404.536 748.442 305.302 661.094 257.534C480.358 158.696 255.708 263.026 200.22 459.068C196.937 470.668 194.003 482.668 192.429 494.632C190.834 506.75 194.938 518.696 188.523 529.954C176.985 550.202 147.072 544.274 130.736 534.28C106.543 519.478 93.568 495.42 87.1942 468.494C83.9548 454.808 85.9968 436.252 102.754 447.052L103.342 447.438Z" fill="black"/>
<path d="M808.122 379.49C812.04 381.942 814.306 387.762 817.048 391.488C836.64 419.868 864.48 491.252 863.972 521.446C853.748 520.894 847.364 517.966 838.614 512.88C838.448 471.904 829.5 433.472 814.926 395.354C812.684 390.054 810.468 384.744 808.122 379.49Z" fill="#FF00D3"/>
<path d="M837.53 537.25C846.556 541.06 854.164 542.838 863.972 543.262C863.992 554.116 864.368 565.154 863.318 575.964C850.438 708.584 717.574 798.978 594.534 816.59L571.946 819.68C569.234 820.046 566.682 820.87 563.914 820.728C570.024 818.298 576.154 817.336 582.546 815.974C707.508 789.364 814.158 689.974 834.846 561.572C836.146 553.512 836.774 545.374 837.53 537.25Z" fill="#FF00D3"/>
<path d="M305.414 731.144C315.514 733.814 342.952 749.77 356.546 755.04C533.682 823.706 750.688 719.364 807.274 537.754C810.488 527.438 813.162 516.826 817.048 506.746C818.282 513.526 817.224 521.812 817.016 528.72C812.292 685.272 663.81 797.118 513.87 801.302C442.052 803.306 372.094 778.86 313.536 738.03C310.6 735.982 307.748 733.886 305.414 731.144Z" fill="#FF00D3"/>
</svg>
