<svg width="1024" height="1024" viewBox="0 0 1024 1024" fill="none" xmlns="http://www.w3.org/2000/svg">
<path d="M402.202 423.366C488.24 421.296 483.756 361.358 503.258 360.478C538.708 358.88 504.792 434.486 448.6 443.908C430.558 439.478 416.03 439.136 402.202 423.366Z" fill="#4A00FF"/>
<path d="M647.39 296.74C726.616 283.318 733.014 209.448 756.042 205.808C765.468 204.318 775.134 213.408 775.88 222.582C777.082 237.388 757.138 267.964 747.804 278.392C733.988 293.826 715.336 309.064 694.9 314.698C676.78 313.976 661.536 308.046 647.39 296.74Z" fill="#4A00FF"/>
<path d="M482.136 582.354C482.97 584.422 480.478 590.52 479.798 593.034C458.806 670.642 501.248 733.362 552.868 786.006C556.888 790.104 619.592 843.61 579.158 830.156C550.122 816.806 510.71 773.006 492.274 746.93C468.118 712.762 451.834 669.698 459.22 627.46C461.94 611.908 468.682 591.784 482.136 582.354Z" fill="black"/>
<path d="M205.906 369.666C267.834 363.112 303.426 454.188 241.532 486.904C200.388 508.65 137.998 474.988 152.909 428.046C155.116 437.658 157.305 445.95 163.661 453.756C191.14 495.156 262.384 473.118 251.144 424.616C241.208 381.736 179.83 374.63 154.356 416.448C154.695 387.768 179.705 372.462 205.906 369.666Z" fill="black"/>
<path d="M448.6 443.908C365.796 468.778 320.314 343.79 397.002 306.778C430.716 290.506 473.366 303.118 489.638 337.624C502.7 332.182 519.204 329.68 532.134 336.522C578.62 361.122 535.38 445.13 488.686 459.098C482.354 460.994 448.402 464.822 467.164 454.502C497.05 438.064 527.724 409.632 530.478 373.708C532.612 345.9 501.222 333.97 482.136 351.53C465.394 332.434 449.568 315.452 420.586 322.09C390.184 329.052 372.97 357.418 380.3 387.558C383.016 398.728 392.216 417.228 402.202 423.366C416.03 439.136 430.558 439.478 448.6 443.908Z" fill="black"/>
<path d="M694.9 314.698C634.268 337.07 579.264 267.14 595.154 209.478C612.642 146.011 697.666 130.88 732.466 192.649C767.504 159.23 816.12 185.768 812.748 228.882C808.6 281.932 757.992 333.186 702.906 328.576C740.33 304.268 787.548 275.344 790.438 223.8C792.392 188.998 749.91 180.369 726.94 201.826C707.246 187.287 687.8 172.859 661.852 176.637C603.014 185.202 601.672 262.948 647.39 296.74C661.536 308.046 676.78 313.976 694.9 314.698Z" fill="black"/>
<path d="M673.344 342.75C696.9 340.894 719.598 351.626 738.512 364.688C787.176 398.294 817.598 452.424 828.072 509.944C863.528 504.434 898.492 529.18 890.236 566.872C879.076 617.818 798.29 610.594 790.33 566.6C789.432 561.646 789.464 556.356 786.504 552.066C774.684 534.934 760.31 518.32 746.542 502.786C739.424 494.756 730.738 487.578 724.964 478.502C703.57 544.758 719.812 617.256 746.028 679.546C774.632 670.166 777.282 654.302 794.344 633.3C822.816 598.256 876.108 606.804 907.492 632.898C921.28 644.36 942.114 668.948 943.452 687.612C944.32 699.696 936.252 709.896 923.924 710.514C903.26 711.55 890.984 687.03 877.938 674.756C877.81 698.886 885.22 723.906 895.958 745.352C890.168 750.142 883.216 752.666 876.33 755.432C912.444 839.982 859.38 875.824 859.112 839.454C859.064 833.054 863.784 825.588 865.596 819.408C870.936 801.194 867.59 778.366 863.674 760.048C850.94 761.51 834.81 764.688 822.5 760.048C822.93 787.838 813.22 839.34 783.02 849.908C763.524 840.714 780.772 828.072 786.312 820.298L786.184 819.696C781.798 824.42 775.898 826.65 771.15 820.488C758.78 804.436 740.172 729.472 726.94 698.672C713.766 701.332 688.76 705.068 677.396 708.802C674.844 755.23 658.81 803.208 632.76 841.516C624.76 853.284 610.054 874.72 597.522 853.942C597.178 839.76 606.146 833.198 613.554 822.116C641.342 780.542 646.922 751.812 663 708.802C639.274 711.594 585.998 713.15 569.866 693.666C555.18 675.928 564.03 597.414 566.434 573.26C545.21 578.83 527.14 574.07 509.76 560.57C497.112 568.198 443.362 590.338 428.764 585.938C418.186 582.748 417.846 568.868 427.212 564.222C435.07 560.324 444.976 559.862 453.41 557.304C466.862 553.224 479.484 547.226 492.154 541.224C482.178 527.828 470.358 514.776 457.506 504.082C418.456 474.316 397.506 510.934 393.948 547.252C387.344 614.652 410.526 664.676 451.414 714.326C449.98 715.51 448.282 716.402 446.686 717.352C442.936 757.146 434.338 777.664 407.078 809.212C401.29 815.91 383.644 835.252 377.156 839.302C368.23 844.872 361.396 837.744 369.17 825.9C389.606 794.768 429.154 754.63 428.538 714.326C400.112 681.386 382.514 635.538 379.414 592.482C353.138 624.57 319.208 626.344 283.286 607.704C290.002 640.686 295.798 664.414 291.164 697.664L291.032 698.672C282.772 708.6 272.962 715.69 261.672 721.728C266.99 729.184 272.96 736.208 278.362 743.618C293.234 764.016 326.924 824.016 319.25 845.848C317.638 850.432 312.664 853.072 308.004 851.27C296.256 846.726 288.038 810.284 284.158 799.412C275.148 774.17 265.494 748.702 254.634 724.202C239.532 730.26 224.746 733.106 208.504 732.704C208.368 764.604 207.75 839.116 183.535 858.548C178.91 862.26 171.578 862.782 167.894 857.482C162.375 849.54 170.441 835.638 173.281 827.98C184.72 797.146 191.544 764.856 198.066 732.704C181.026 726.742 165.985 720.138 154.356 705.796C156.908 692.88 162.223 679.918 163.661 666.89C139.657 658.278 79.4798 640.984 81.8456 607.016C83.5042 583.202 113.003 549.938 130.829 534.95C168.581 503.206 245.656 482.294 266.786 541.728C276.886 570.14 281.698 594.464 320.166 597.332C394.39 602.866 365.532 471.502 437.824 478.62C468.806 481.668 488.228 510.314 506.438 532.228C552.784 507.452 581.88 464.184 599.268 416.278C612.284 380.412 631.92 347.178 673.344 342.75ZM670.862 363.202C636.95 366.818 625.286 403.6 616.962 431.446C597.91 495.18 589.34 573.172 587.182 640.252C586.794 652.306 584.882 665.23 586.754 677.19C603.608 692.122 698.724 687.632 720.478 684.61C709.76 657.182 701.188 640.18 695.668 609.086C694.354 601.686 693.484 594.17 691.772 586.852L691.842 586.102C692.904 574.244 691.48 560.65 692.432 547.614C693.514 532.784 705.482 451.424 726.304 454.198C740.546 456.094 784.58 513.654 795.276 532.228C804.754 520.726 812.326 515.668 826 509.944C789.328 460.068 749.544 373.298 683.758 363.336C679.896 362.752 674.654 362.222 670.862 363.202ZM111.346 619.484C127.485 632.274 172.495 652.064 192.92 649.48C214.98 646.688 173.329 625.64 168.521 623.868C158.874 617.296 147.119 610.714 136.178 606.682C135.444 595.492 160.405 574.214 171.599 570.6C176.48 583.58 179.756 599.396 184.654 610.956C200.648 621.174 230.952 634.56 213.658 660.094C203.642 674.88 180.205 670.498 165.793 666.89C163.466 678.77 161.513 690.716 159.141 702.596C187.778 724.646 245.596 714.05 277.95 702.596C277.91 696.116 276.65 663.506 277.95 661.946C268.156 631.458 265.138 600.2 256.59 570.6C253.5 567.168 252.6 562.724 250.926 558.544C223.05 488.886 113.108 572.904 111.346 619.484ZM799.32 661.946C785.914 680.662 776.288 691.978 753.598 698.672C765.85 735.036 789.536 779.466 787.37 818.812C802.216 800.986 807.854 781.108 815.568 760.048C807.848 758.348 783.636 750.482 784.594 740.138C787.254 730.416 800.232 671.634 799.32 661.946ZM838.798 527.734C802.04 530.966 786.72 577.18 834.976 586.852C887.742 574.878 868.096 528.054 838.798 527.734ZM111.346 619.484C113.108 572.904 223.05 488.886 250.926 558.544C252.6 562.724 253.5 567.168 256.59 570.6C253.402 554.35 251.302 538.044 236.48 528.096C195.146 500.358 134.574 549.794 112.497 583.35C101.563 599.968 93.5848 606.93 111.346 619.484ZM574.342 509.944C563.062 521.25 552.022 531.77 539.13 541.264C537.028 542.812 528.678 547.154 528.512 549.884L530.5 551.782C543.226 554.336 555.992 555.152 568.664 551.782C569.866 545.528 574.654 515.444 574.342 509.944ZM822.5 629.844C826.67 632.094 831.738 630.976 836.274 631.444C864.794 634.378 885.352 649.156 903.958 670.012C906.476 672.832 919.272 688.824 920.854 689.64L921.23 689.434C917.592 668.776 897.494 649.462 880.408 638.892C860.66 626.676 844.748 624.57 822.5 629.844ZM277.95 702.596C282.188 700.61 286.474 699.634 291.032 698.672C285.022 689.38 280.138 672.96 277.95 661.946C276.65 663.506 277.91 696.116 277.95 702.596ZM161.31 586.852C156.527 591.596 153.032 596.45 149.958 602.44C151.37 602.458 152.965 602.614 154.356 602.44C157.485 603.752 160.51 605.488 163.661 606.682C163.38 603.668 162.657 588.288 161.31 586.852Z" fill="black"/>
<path d="M810.382 635.782C814.256 633.376 818.33 631.652 822.5 629.844C826.67 632.094 831.738 630.976 836.274 631.444C864.794 634.378 885.352 649.156 903.958 670.012C906.476 672.832 919.272 688.824 920.854 689.64L921.23 689.434C923.696 702.714 893.17 672.75 885.182 665.44C879.228 659.994 872.972 655.028 866.366 650.388C848.966 678.084 859.736 707.242 869.262 735.43C842.658 748.388 812.526 747.124 784.594 740.138C787.254 730.416 800.232 671.634 799.32 661.946C803.422 653.386 806.364 643.932 810.382 635.782Z" fill="#4A00FF"/>
<path d="M111.346 619.484C113.108 572.904 223.05 488.886 250.926 558.544C252.6 562.724 253.5 567.168 256.59 570.6C265.138 600.2 268.156 631.458 277.95 661.946C276.65 663.506 277.91 696.116 277.95 702.596C245.596 714.05 187.778 724.646 159.141 702.596C161.513 690.716 163.466 678.77 165.793 666.89C180.205 670.498 203.642 674.88 213.658 660.094C230.952 634.56 200.648 621.174 184.654 610.956C179.756 599.396 176.48 583.58 171.599 570.6C160.405 574.214 135.444 595.492 136.178 606.682C147.119 610.714 158.874 617.296 168.521 623.868C173.329 625.64 214.98 646.688 192.92 649.48C172.495 652.064 127.485 632.274 111.346 619.484ZM136.178 606.682C137.508 613.65 164.566 624.324 168.521 623.868C158.874 617.296 147.119 610.714 136.178 606.682Z" fill="#4A00FF"/>
</svg>
